<?xml version="1.0" encoding="UTF-8"?><svg id="a" xmlns="http://www.w3.org/2000/svg" viewBox="0 0 255.43 253.75"><path d="M191.08,189.7c1.53-11.46,11.31-14.06,19.26-5.96,4.28,4.28,7.8,9.94,18.34,9.94,11.77,0,26.75-11.92,26.75-32.25s-14.98-32.25-26.75-32.25c-10.55,0-14.06,5.66-18.34,9.94-8.1,8.1-17.88,5.5-19.26-5.96h0c-.15-.92-.15-1.99-.15-3.21v-65.43h-65.58c-3.52,0-6.27-.61-8.41-1.68-6.73-3.36-7.34-11.16-.61-17.73,4.28-4.28,9.94-7.8,9.94-18.34C126.26,15.13,114.34.15,94.16,0c-20.18.15-32.1,14.98-32.1,26.75,0,10.55,5.66,14.06,9.94,18.34,8.87,8.71,5.04,19.57-9.17,19.57H0v173.81c0,8.44,6.84,15.29,15.29,15.29h175.64v-60.84c0-1.07,0-2.14.15-3.21Z" style="fill:#7fbf6b;"/></svg>