<?xml version="1.0" encoding="UTF-8"?><svg id="a" xmlns="http://www.w3.org/2000/svg" viewBox="0 0 256 256"><path d="M10,0h118.51v128H0V10C0,4.48,4.48,0,10,0Z" style="fill:#4557a4; opacity:.5;"/><path d="M128.51,0h127.49v128h-117.49c-5.52,0-10-4.48-10-10V0h0Z" transform="translate(384.51 128) rotate(-180)" style="fill:#f7992c; opacity:.5;"/><path d="M0,128h128.51v128H10C4.48,256,0,251.52,0,246v-118H0Z" style="fill:#81bf6b; opacity:.5;"/><path d="M138.51,128h117.49v128h-127.49v-118c0-5.52,4.48-10,10-10Z" transform="translate(384.51 384) rotate(180)" style="fill:#f4f4f4; opacity:.5;"/><g id="b"><path d="M128.51,83.92v42.96h.1v-40.99c0-.69,0-1.38-.1-1.97Z" style="fill:#fff;"/><path d="M128.61,4h-.1v43.45c.1-.59.1-1.28.1-2.06V4Z" style="fill:#fff;"/><path d="M205.39,115.47c2.75-2.75,6.39-5.01,6.39-11.8,0-7.57-7.67-17.2-20.74-17.2s-20.74,9.63-20.74,17.2c0,6.78,3.64,9.04,6.39,11.8,4.23,4.23,3.93,9.24-.39,11.4h29.59c-4.42-2.16-4.72-7.18-.49-11.4Z" style="fill:#fff;"/><path d="M128.61,127.96h42.17c2.26,0,4.03-.39,5.41-1.08h-47.58v1.08Z" style="fill:#f7992c;"/><path d="M251.39,127.96v-1.08h-45.81c1.38.69,3.24,1.08,5.41,1.08h40.4Z" style="fill:#fff;"/><path d="M175.9,126.88h-47.38v1.08h41.98c2.16,0,4.03-.39,5.41-1.08Z" style="fill:#fff;"/><path d="M140.9,204.73c2.75,2.75,5.01,6.39,11.8,6.39,7.57,0,17.2-7.67,17.2-20.74s-9.63-20.74-17.2-20.74c-6.78,0-9.04,3.64-11.8,6.39-5.21,5.21-11.5,3.54-12.39-3.83v36.47c.98-7.47,7.27-9.14,12.39-3.93Z" style="fill:#fff;"/><path d="M128.42,127.96v42.17c0,.69.1,1.38.1,2.06v-44.14h-.1v-.1Z" style="fill:#fff;"/><path d="M128.42,249.76h.1v-41.19c-.1.59-.1,1.28-.1,2.06v39.12Z" style="fill:#fff;"/><path d="M51.25,126.88H5.63v1.08h40.11c2.26,0,4.03-.39,5.51-1.08Z" style="fill:#4557a4;"/><path d="M128.42,127.96v42.17c0,.69.1,1.38.1,2.06v-45.22h-47.68c1.38.69,3.24,1.08,5.41,1.08h42.17v-.1Z" style="fill:#fff;"/><path d="M117.11,79.1c-.39.29-.69.59-.98.88.29-.29.69-.59.98-.88Z" style="fill:#f7992c;"/><path d="M118.19,78.32c-.2.2-.49.29-.69.49.2-.1.39-.29.69-.49Z" style="fill:#f7992c;"/><path d="M116.13,51.28c.29.29.69.69.98.88-.29-.29-.69-.59-.98-.88Z" style="fill:#f7992c;"/><path d="M119.17,77.73c-.2.1-.39.2-.59.29.2,0,.39-.1.59-.29Z" style="fill:#f7992c;"/><path d="M118.58,53.15l.59.29c-.2,0-.39-.1-.59-.29Z" style="fill:#f7992c;"/><path d="M120.75,54.03c.2,0,.29.1.49.1-.1,0-.29,0-.49-.1Z" style="fill:#f7992c;"/><path d="M117.5,52.46c.2.2.49.29.69.49-.29-.2-.49-.29-.69-.49Z" style="fill:#f7992c;"/><path d="M119.67,53.74c.2.1.39.1.49.2-.1-.1-.29-.1-.49-.2Z" style="fill:#f7992c;"/><path d="M124.88,77.63c-.1,0-.2-.1-.2-.1q.1.1.2.1Z" style="fill:#f7992c;"/><path d="M128.61,127.96h41.78c2.26,0,4.03-.39,5.41-1.08h-47.28v1.08h.1Z" style="fill:#f7992c;"/><path d="M128.61,85.88c0-.39,0-.88-.1-1.28.1.49.1.88.1,1.28Z" style="fill:#f7992c;"/><path d="M80.74,115.47c2.75-2.75,6.39-5.01,6.39-11.8,0-7.57-7.67-17.2-20.74-17.2h-.1c12.98.1,20.64,9.63,20.64,17.2,0,6.78-3.64,9.04-6.39,11.8-4.23,4.23-3.93,9.24.39,11.4,1.38.69,3.24,1.08,5.41,1.08h.29c-9.14,0-11.6-6.88-5.9-12.48Z" style="fill:#f7992c;"/><path d="M128.42,170.13c0,.69.1,1.38.1,2.06v-44.14h-.1v42.07Z" style="fill:#f7992c;"/><path d="M123.8,54.03c.1,0,.2,0,.2-.1,0,.1-.1.1-.2.1Z" style="fill:#f7992c;"/><path d="M120.26,77.33c-.2.1-.39.1-.59.2.2,0,.39-.1.59-.2Z" style="fill:#f7992c;"/><path d="M121.24,77.14c-.2,0-.39.1-.49.1.2-.1.39-.1.49-.1Z" style="fill:#f7992c;"/><path d="M123.21,77.14c-.1,0-.29,0-.39-.1.1,0,.29,0,.39.1Z" style="fill:#f7992c;"/><path d="M124.09,77.33c-.1,0-.2-.1-.29-.1.1,0,.2,0,.29.1Z" style="fill:#f7992c;"/><path d="M140.9,204.73c-5.21-5.21-11.5-3.54-12.39,3.83-.1.59-.1,1.28-.1,2.06v39.12h.1v-41.19c.98-7.37,7.27-9.04,12.39-3.83Z" style="fill:#f7992c;"/><path d="M205.39,115.47c2.75-2.75,6.39-5.01,6.39-11.8,0-7.57-7.67-17.2-20.74-17.2h-.1c12.98.1,20.64,9.63,20.64,17.2,0,6.78-3.64,9.04-6.39,11.8-4.23,4.23-3.93,9.24.39,11.4,1.38.69,3.24,1.08,5.41,1.08h40.4v-1.08h-45.61c-4.33-2.16-4.62-7.18-.39-11.4Z" style="fill:#f7992c;"/><path d="M128.61,46.66c0-.39.1-.79.1-1.28-.1.39-.1.88-.1,1.28Z" style="fill:#f7992c;"/><path d="M124.68,53.74s.1,0,.1-.1q0,.1-.1.1Z" style="fill:#f7992c;"/><path d="M51.25,126.88c4.33-2.16,4.72-7.18.39-11.4-2.75-2.75-6.39-5.01-6.39-11.8,0-7.57,7.67-17.2,20.74-17.2h.2c13.07,0,20.74,9.63,20.74,17.2,0,6.78-3.64,9.04-6.39,11.8-5.7,5.6-3.24,12.58,5.9,12.58h41.98v-42.17c0-.39,0-.88-.1-1.28,0-.29,0-.49-.1-.79-.39-2.75-1.47-4.62-2.95-5.8l-.1-.1c-.2-.1-.39-.29-.59-.39-.1,0-.2-.1-.2-.1-.2-.1-.39-.2-.59-.2-.1,0-.2-.1-.29-.1-.2,0-.39-.1-.59-.1-.1,0-.29,0-.39-.1h-.98c-.2,0-.29,0-.49.1-.2,0-.39.1-.49.1-.2,0-.29.1-.49.1-.2.1-.39.1-.59.2s-.29.1-.49.2-.39.2-.59.29c-.1.1-.29.2-.39.2-.2.2-.49.29-.69.49-.1.1-.2.2-.39.29-.39.29-.69.59-.98.88-2.75,2.75-5.01,6.39-11.8,6.39-7.57,0-17.2-7.67-17.2-20.74s9.63-20.74,17.2-20.74c6.78,0,9.04,3.64,11.8,6.39.29.29.69.69.98.88.1.1.2.2.39.29.2.2.49.29.69.49.2.1.29.2.49.29.2.1.39.2.59.29.2.1.29.1.49.2.2.1.39.1.49.2.2.1.39.1.49.1.2,0,.29.1.49.1s.39.1.59.1h1.28c.2,0,.39-.1.69-.1.1,0,.2,0,.2-.1.2-.1.49-.2.69-.29,0,0,.1,0,.1-.1,1.87-.98,3.24-3.05,3.74-6.29,0-.29.1-.49.1-.79,0-.39.1-.79.1-1.28V4H15.46c-5.43,0-9.83,4.4-9.83,9.83v114.13h40.11c2.26,0,4.03-.39,5.51-1.08Z" style="fill:#4557a4;"/><path d="M251.39,127.96h-40.4c-2.26,0-4.03-.39-5.41-1.08-4.33-2.16-4.72-7.18-.39-11.4,2.75-2.75,6.39-5.01,6.39-11.8,0-7.47-7.67-17.1-20.64-17.2-12.98.1-20.64,9.63-20.64,17.2,0,6.78,3.64,9.04,6.39,11.8,4.23,4.23,3.93,9.24-.39,11.4h-.29c-1.38.69-3.24,1.08-5.41,1.08h-42.07v44.14c.98,7.37,7.27,9.04,12.39,3.83,2.75-2.75,5.01-6.39,11.8-6.39,7.57,0,17.2,7.67,17.2,20.74s-9.63,20.74-17.2,20.74c-6.78,0-9.04-3.64-11.8-6.39-5.21-5.21-11.5-3.54-12.39,3.83v41.29h113.05c5.43,0,9.83-4.4,9.83-9.83v-111.97Z" style="fill:#f4f4f4;"/><path d="M128.51,208.57c.98-7.37,7.27-9.04,12.39-3.83,2.75,2.75,5.01,6.39,11.8,6.39,7.57,0,17.2-7.67,17.2-20.74s-9.63-20.74-17.2-20.74c-6.78,0-9.04,3.64-11.8,6.39-5.21,5.21-11.5,3.54-12.39-3.83h0c-.1-.59-.1-1.28-.1-2.06v-42.07h-42.17c-2.26,0-4.03-.39-5.41-1.08-4.33-2.16-4.72-7.18-.39-11.4,2.75-2.75,6.39-5.01,6.39-11.8,0-7.47-7.67-17.1-20.64-17.2-12.98.1-20.64,9.63-20.64,17.2,0,6.78,3.64,9.04,6.39,11.8,5.7,5.6,3.24,12.58-5.9,12.58H5.63v111.77c0,5.43,4.4,9.83,9.83,9.83h112.95v-39.12c0-.69,0-1.38.1-2.06Z" style="fill:#7fbf6b;"/><path d="M45.25,103.58c0,6.78,3.64,9.04,6.39,11.8,4.23,4.23,3.93,9.24-.39,11.4-1.38.69-3.24,1.08-5.41,1.08h.29c9.14,0,11.5-6.88,5.9-12.58-2.75-2.75-6.39-5.01-6.39-11.8,0-7.47,7.67-17.1,20.64-17.2h-.1c-13.27.2-20.94,9.83-20.94,17.3Z" style="fill:#7fbf6b;"/><path d="M140.9,175.93c-5.21,5.21-11.5,3.54-12.39-3.83h0c.98,7.47,7.27,9.04,12.39,3.83Z" style="fill:#7fbf6b;"/><path d="M128.61,4v41.39c0,.39,0,.88-.1,1.28-.29,3.64-1.77,6-3.74,7.08,0,0-.1,0-.1.1-.2.1-.49.2-.69.29-.1,0-.2.1-.2.1-.2.1-.39.1-.69.1h-1.28c-.2,0-.39,0-.59-.1-.2,0-.29-.1-.49-.1s-.39-.1-.49-.1c-.2-.1-.39-.1-.49-.2-.2-.1-.29-.1-.49-.2l-.59-.29c-.2-.1-.29-.2-.49-.29s-.49-.29-.69-.49c-.1-.1-.2-.2-.39-.29-.39-.29-.69-.59-.98-.88-2.75-2.75-5.01-6.39-11.8-6.39-7.57,0-17.2,7.67-17.2,20.74s9.63,20.74,17.2,20.74c6.78,0,9.04-3.64,11.8-6.39.29-.29.69-.69.98-.88.1-.1.2-.2.39-.29.2-.2.49-.39.69-.49.1-.1.29-.2.39-.2.2-.1.39-.2.59-.29.2-.1.29-.1.49-.2s.39-.2.59-.2c.2-.1.29-.1.49-.1s.39-.1.49-.1c.2,0,.29,0,.49-.1h.98c.1,0,.29,0,.39.1.2,0,.39.1.59.1.1,0,.2.1.29.1.2.1.39.1.59.2.1,0,.2.1.2.1.2.1.39.2.59.39l.1.1c1.47,1.08,2.56,3.05,2.95,5.8h0c0,.29.1.49.1.79,0,.39.1.79.1,1.28v40.7h47.28c4.33-2.16,4.72-7.18.39-11.4-2.75-2.75-6.39-5.01-6.39-11.8,0-7.57,7.67-17.2,20.74-17.2h.2c13.07,0,20.74,9.63,20.74,17.2,0,6.78-3.64,9.04-6.39,11.8-4.23,4.23-3.93,9.24.39,11.4h45.81V13.83c0-5.43-4.4-9.83-9.83-9.83h-112.95Z" style="fill:#f7992c;"/><path d="M125.47,78.02c-.2-.1-.39-.29-.59-.39.2.2.39.29.59.39Z" style="fill:#f7992c;"/><path d="M124.68,77.53c-.2-.1-.39-.2-.59-.2.2.1.39.1.59.2Z" style="fill:#f7992c;"/><path d="M123.21,54.23c.2,0,.39-.1.69-.1-.29,0-.49,0-.69.1Z" style="fill:#f7992c;"/><path d="M128.61,46.66c0,.29,0,.49-.1.79-.39,3.15-1.87,5.31-3.74,6.29,2.06-1.08,3.54-3.44,3.83-7.08Z" style="fill:#f7992c;"/><path d="M123.99,54.03c.2-.1.49-.2.69-.29-.2.1-.39.2-.69.29Z" style="fill:#f7992c;"/><path d="M118.19,52.95c.2.1.29.2.49.29-.2-.1-.39-.2-.49-.29Z" style="fill:#f7992c;"/><path d="M120.26,53.94c.2.1.39.1.49.1-.1,0-.29,0-.49-.1Z" style="fill:#f7992c;"/><path d="M117.11,52.17c.1.1.2.2.39.29-.1-.1-.29-.2-.39-.29Z" style="fill:#f7992c;"/><path d="M128.61,84.71c0-.29,0-.49-.1-.79,0,.2.1.49.1.79Z" style="fill:#f7992c;"/><path d="M119.17,53.54c.2.1.29.1.49.2-.1-.1-.29-.1-.49-.2Z" style="fill:#f7992c;"/><path d="M121.24,54.13c.2,0,.39.1.59.1-.2,0-.39,0-.59-.1Z" style="fill:#f7992c;"/><path d="M125.56,78.12c1.47,1.08,2.56,3.05,2.95,5.8-.39-2.75-1.47-4.72-2.95-5.8Z" style="fill:#f7992c;"/><path d="M118.58,78.12c-.1.1-.29.2-.39.2.1,0,.29-.1.39-.2Z" style="fill:#f7992c;"/><path d="M117.5,78.91c-.1.1-.2.2-.39.29.1-.2.2-.29.39-.29Z" style="fill:#f7992c;"/><path d="M123.8,77.23c-.2,0-.39-.1-.59-.1.2,0,.39,0,.59.1Z" style="fill:#f7992c;"/><path d="M119.67,77.63c-.2.1-.29.1-.49.2.2-.1.39-.2.49-.2Z" style="fill:#f7992c;"/><path d="M121.83,77.04c-.2,0-.29,0-.49.1.1-.1.29-.1.49-.1Z" style="fill:#f7992c;"/><path d="M120.75,77.23c-.2,0-.29.1-.49.1.2,0,.29-.1.49-.1Z" style="fill:#f7992c;"/><path d="M169.9,103.58c0,6.78,3.64,9.04,6.39,11.8,4.23,4.23,3.93,9.24-.39,11.4h.29c4.33-2.16,4.72-7.18.39-11.4-2.75-2.75-6.39-5.01-6.39-11.8,0-7.47,7.67-17.1,20.64-17.2h-.1c-13.07.1-20.84,9.73-20.84,17.2Z" style="fill:#f7992c;"/><path d="M103.84,98.86s13.27-26.54,36.96-26.54,42.57,17.99,41.68,47.38c14.16,1.87,27.43,13.27,25.56,32.15-1.87,18.87-13.27,25.56-20.84,27.43s-110.79,0-110.79,0c0,0-25.56-.98-26.54-28.41-.98-27.43,19.86-34.11,19.86-34.11,0,0,2.85-16.12,13.27-20.84,10.42-4.72,20.84,2.95,20.84,2.95Z" style="fill:#fff; stroke:#464646; stroke-miterlimit:10; stroke-width:.75px;"/></g></svg>