<svg id="Calque_3" data-name="Calque 3" xmlns="http://www.w3.org/2000/svg" viewBox="0 0 248 242">
  <defs>
    <style>
      .cls-1 {
        fill: #353535;
      }

      .cls-2, .cls-3, .cls-5 {
        fill: none;
      }

      .cls-2, .cls-5 {
        stroke: #80bf6a;
      }

      .cls-2, .cls-3, .cls-4, .cls-5 {
        stroke-miterlimit: 10;
      }

      .cls-2 {
        stroke-width: 8px;
      }

      .cls-3 {
        stroke: #f4992d;
        stroke-width: 2px;
      }

      .cls-4, .cls-7 {
        fill: #f4992d;
      }

      .cls-4 {
        stroke: #000;
        stroke-width: 6px;
      }

      .cls-5 {
        stroke-width: 13px;
      }

      .cls-6 {
        fill: #4557a3;
      }

      .cls-8 {
        fill: #80bf6a;
      }
    </style>
  </defs>
  <rect class="cls-1" x="4" y="8" width="240" height="227" rx="14.92"/>
  <rect x="26.5" y="53.5" width="195" height="162"/>
  <rect class="cls-2" x="4" y="4" width="240" height="234" rx="23.18"/>
  <rect class="cls-3" x="21.69" y="49.5" width="204.63" height="170"/>
  <g>
    <polygon class="cls-4" points="148.5 135 120.5 188 100.5 188 76.5 135 97.5 135 112.5 164.96 127.5 135 148.5 135"/>
    <polygon class="cls-4" points="101.5 135 129.5 188 149.5 188 173.5 135 152.5 135 137.5 164.96 122.5 135 101.5 135"/>
  </g>
  <g>
    <line class="cls-2" x1="68.99" y1="115.53" x2="179.93" y2="115.53"/>
    <line class="cls-5" x1="200" y1="92.46" x2="200" y2="138.71"/>
    <line class="cls-5" x1="181.51" y1="81.19" x2="181.51" y2="148.81"/>
    <line class="cls-5" x1="50.5" y1="137.54" x2="50.5" y2="91.29"/>
    <line class="cls-5" x1="68.99" y1="148.81" x2="68.99" y2="81.19"/>
  </g>
  <circle class="cls-6" cx="39" cy="27" r="8"/>
  <circle class="cls-7" cx="68" cy="27" r="8"/>
  <circle class="cls-8" cx="96" cy="27" r="8"/>
</svg>
